<mxfile host="Electron" agent="Mozilla/5.0 (Windows NT 10.0; Win64; x64) AppleWebKit/537.36 (KHTML, like Gecko) draw.io/26.0.16 Chrome/132.0.6834.196 Electron/34.2.0 Safari/537.36" version="26.0.16">
  <diagram name="페이지-1" id="kElGSkMAbv3EU4sqKfQY">
    <mxGraphModel dx="594" dy="446" grid="1" gridSize="10" guides="1" tooltips="1" connect="1" arrows="1" fold="1" page="1" pageScale="1" pageWidth="1169" pageHeight="827" math="0" shadow="0">
      <root>
        <mxCell id="0" />
        <mxCell id="1" parent="0" />
        <mxCell id="4YWPGZYzfikYWuKdy2oT-1" value="" style="rounded=0;whiteSpace=wrap;html=1;" parent="1" vertex="1">
          <mxGeometry x="370" y="190" width="480" height="270" as="geometry" />
        </mxCell>
        <mxCell id="G2Q2ZaVH8uB0qnJ5T0fh-19" value="" style="rounded=0;whiteSpace=wrap;html=1;" vertex="1" parent="1">
          <mxGeometry x="590" y="220" width="160" height="220" as="geometry" />
        </mxCell>
        <mxCell id="G2Q2ZaVH8uB0qnJ5T0fh-52" style="edgeStyle=orthogonalEdgeStyle;rounded=0;orthogonalLoop=1;jettySize=auto;html=1;entryX=0.5;entryY=0;entryDx=0;entryDy=0;" edge="1" parent="1" source="4YWPGZYzfikYWuKdy2oT-7" target="G2Q2ZaVH8uB0qnJ5T0fh-40">
          <mxGeometry relative="1" as="geometry">
            <Array as="points">
              <mxPoint x="670" y="140" />
              <mxPoint x="670" y="200" />
              <mxPoint x="626" y="200" />
            </Array>
          </mxGeometry>
        </mxCell>
        <mxCell id="G2Q2ZaVH8uB0qnJ5T0fh-55" style="edgeStyle=orthogonalEdgeStyle;rounded=0;orthogonalLoop=1;jettySize=auto;html=1;entryX=1;entryY=0.5;entryDx=0;entryDy=0;" edge="1" parent="1" source="4YWPGZYzfikYWuKdy2oT-7" target="G2Q2ZaVH8uB0qnJ5T0fh-13">
          <mxGeometry relative="1" as="geometry">
            <Array as="points">
              <mxPoint x="740" y="140" />
              <mxPoint x="740" y="405" />
            </Array>
          </mxGeometry>
        </mxCell>
        <mxCell id="G2Q2ZaVH8uB0qnJ5T0fh-56" value="COLOR" style="edgeLabel;html=1;align=center;verticalAlign=middle;resizable=0;points=[];" vertex="1" connectable="0" parent="G2Q2ZaVH8uB0qnJ5T0fh-55">
          <mxGeometry x="-0.7531" y="-1" relative="1" as="geometry">
            <mxPoint x="-15" y="-1" as="offset" />
          </mxGeometry>
        </mxCell>
        <mxCell id="4YWPGZYzfikYWuKdy2oT-7" value="CAM" style="shape=cylinder3;whiteSpace=wrap;html=1;boundedLbl=1;backgroundOutline=1;size=15;" parent="1" vertex="1">
          <mxGeometry x="601.25" y="100" width="60" height="80" as="geometry" />
        </mxCell>
        <mxCell id="4YWPGZYzfikYWuKdy2oT-10" value="MONITOR" style="shape=document;whiteSpace=wrap;html=1;boundedLbl=1;" parent="1" vertex="1">
          <mxGeometry x="210" y="220" width="120" height="80" as="geometry" />
        </mxCell>
        <mxCell id="4YWPGZYzfikYWuKdy2oT-14" style="edgeStyle=orthogonalEdgeStyle;rounded=0;orthogonalLoop=1;jettySize=auto;html=1;exitX=0.5;exitY=1;exitDx=0;exitDy=0;" parent="1" source="4YWPGZYzfikYWuKdy2oT-1" target="4YWPGZYzfikYWuKdy2oT-1" edge="1">
          <mxGeometry relative="1" as="geometry" />
        </mxCell>
        <mxCell id="4YWPGZYzfikYWuKdy2oT-23" value="SCCB" style="whiteSpace=wrap;html=1;aspect=fixed;" parent="1" vertex="1">
          <mxGeometry x="770" y="230" width="60" height="60" as="geometry" />
        </mxCell>
        <mxCell id="4YWPGZYzfikYWuKdy2oT-35" value="" style="edgeStyle=orthogonalEdgeStyle;rounded=0;orthogonalLoop=1;jettySize=auto;html=1;" parent="1" source="G2Q2ZaVH8uB0qnJ5T0fh-53" target="4YWPGZYzfikYWuKdy2oT-10" edge="1">
          <mxGeometry relative="1" as="geometry" />
        </mxCell>
        <mxCell id="4YWPGZYzfikYWuKdy2oT-30" value="VGA&lt;div&gt;CTRL&lt;/div&gt;" style="whiteSpace=wrap;html=1;aspect=fixed;" parent="1" vertex="1">
          <mxGeometry x="520" y="230" width="60" height="60" as="geometry" />
        </mxCell>
        <mxCell id="4YWPGZYzfikYWuKdy2oT-34" value="" style="edgeStyle=orthogonalEdgeStyle;rounded=0;orthogonalLoop=1;jettySize=auto;html=1;" parent="1" target="4YWPGZYzfikYWuKdy2oT-30" edge="1">
          <mxGeometry relative="1" as="geometry">
            <mxPoint x="600" y="260" as="sourcePoint" />
          </mxGeometry>
        </mxCell>
        <mxCell id="G2Q2ZaVH8uB0qnJ5T0fh-36" style="edgeStyle=orthogonalEdgeStyle;rounded=0;orthogonalLoop=1;jettySize=auto;html=1;entryX=0.5;entryY=1;entryDx=0;entryDy=0;" edge="1" parent="1" source="G2Q2ZaVH8uB0qnJ5T0fh-13" target="G2Q2ZaVH8uB0qnJ5T0fh-35">
          <mxGeometry relative="1" as="geometry" />
        </mxCell>
        <mxCell id="G2Q2ZaVH8uB0qnJ5T0fh-46" value="USER" style="edgeLabel;html=1;align=center;verticalAlign=middle;resizable=0;points=[];" vertex="1" connectable="0" parent="G2Q2ZaVH8uB0qnJ5T0fh-36">
          <mxGeometry x="-0.3467" y="-3" relative="1" as="geometry">
            <mxPoint x="-8" y="12" as="offset" />
          </mxGeometry>
        </mxCell>
        <mxCell id="G2Q2ZaVH8uB0qnJ5T0fh-13" value="col&lt;div&gt;find&lt;/div&gt;" style="whiteSpace=wrap;html=1;aspect=fixed;" vertex="1" parent="1">
          <mxGeometry x="670" y="380" width="50" height="50" as="geometry" />
        </mxCell>
        <mxCell id="G2Q2ZaVH8uB0qnJ5T0fh-31" value="" style="edgeStyle=orthogonalEdgeStyle;rounded=0;orthogonalLoop=1;jettySize=auto;html=1;" edge="1" parent="1" source="4YWPGZYzfikYWuKdy2oT-3" target="G2Q2ZaVH8uB0qnJ5T0fh-30">
          <mxGeometry relative="1" as="geometry" />
        </mxCell>
        <mxCell id="4YWPGZYzfikYWuKdy2oT-3" value="RAND" style="rounded=0;whiteSpace=wrap;html=1;" parent="1" vertex="1">
          <mxGeometry x="680" y="230" width="50" height="60" as="geometry" />
        </mxCell>
        <mxCell id="G2Q2ZaVH8uB0qnJ5T0fh-42" style="edgeStyle=orthogonalEdgeStyle;rounded=0;orthogonalLoop=1;jettySize=auto;html=1;entryX=1;entryY=0.5;entryDx=0;entryDy=0;" edge="1" parent="1" source="G2Q2ZaVH8uB0qnJ5T0fh-30" target="G2Q2ZaVH8uB0qnJ5T0fh-35">
          <mxGeometry relative="1" as="geometry" />
        </mxCell>
        <mxCell id="G2Q2ZaVH8uB0qnJ5T0fh-30" value="FLAG&lt;div&gt;STATE&lt;/div&gt;" style="rounded=0;whiteSpace=wrap;html=1;" vertex="1" parent="1">
          <mxGeometry x="680" y="316.25" width="50" height="40" as="geometry" />
        </mxCell>
        <mxCell id="G2Q2ZaVH8uB0qnJ5T0fh-43" value="" style="edgeStyle=orthogonalEdgeStyle;rounded=0;orthogonalLoop=1;jettySize=auto;html=1;" edge="1" parent="1" source="G2Q2ZaVH8uB0qnJ5T0fh-35" target="G2Q2ZaVH8uB0qnJ5T0fh-40">
          <mxGeometry relative="1" as="geometry" />
        </mxCell>
        <mxCell id="G2Q2ZaVH8uB0qnJ5T0fh-44" value="GAMESTATE" style="edgeLabel;html=1;align=center;verticalAlign=middle;resizable=0;points=[];" vertex="1" connectable="0" parent="G2Q2ZaVH8uB0qnJ5T0fh-43">
          <mxGeometry x="-0.0455" y="1" relative="1" as="geometry">
            <mxPoint as="offset" />
          </mxGeometry>
        </mxCell>
        <mxCell id="G2Q2ZaVH8uB0qnJ5T0fh-35" value="game" style="whiteSpace=wrap;html=1;aspect=fixed;" vertex="1" parent="1">
          <mxGeometry x="601.25" y="312.5" width="47.5" height="47.5" as="geometry" />
        </mxCell>
        <mxCell id="G2Q2ZaVH8uB0qnJ5T0fh-40" value="TEXT&lt;br&gt;SHOW" style="whiteSpace=wrap;html=1;aspect=fixed;" vertex="1" parent="1">
          <mxGeometry x="601.25" y="235" width="50" height="50" as="geometry" />
        </mxCell>
        <mxCell id="G2Q2ZaVH8uB0qnJ5T0fh-45" value="" style="rounded=0;whiteSpace=wrap;html=1;" vertex="1" parent="1">
          <mxGeometry x="630" y="350" width="18.75" height="10" as="geometry" />
        </mxCell>
        <mxCell id="G2Q2ZaVH8uB0qnJ5T0fh-54" value="" style="edgeStyle=orthogonalEdgeStyle;rounded=0;orthogonalLoop=1;jettySize=auto;html=1;" edge="1" parent="1" source="4YWPGZYzfikYWuKdy2oT-30" target="G2Q2ZaVH8uB0qnJ5T0fh-53">
          <mxGeometry relative="1" as="geometry">
            <mxPoint x="520" y="260" as="sourcePoint" />
            <mxPoint x="330" y="260" as="targetPoint" />
          </mxGeometry>
        </mxCell>
        <mxCell id="G2Q2ZaVH8uB0qnJ5T0fh-53" value="FILTER" style="rounded=0;whiteSpace=wrap;html=1;" vertex="1" parent="1">
          <mxGeometry x="380" y="230" width="120" height="60" as="geometry" />
        </mxCell>
        <mxCell id="G2Q2ZaVH8uB0qnJ5T0fh-57" style="edgeStyle=orthogonalEdgeStyle;rounded=0;orthogonalLoop=1;jettySize=auto;html=1;entryX=0.5;entryY=0;entryDx=0;entryDy=0;entryPerimeter=0;" edge="1" parent="1" source="4YWPGZYzfikYWuKdy2oT-23" target="4YWPGZYzfikYWuKdy2oT-7">
          <mxGeometry relative="1" as="geometry">
            <Array as="points">
              <mxPoint x="800" y="80" />
              <mxPoint x="631" y="80" />
            </Array>
          </mxGeometry>
        </mxCell>
        <mxCell id="G2Q2ZaVH8uB0qnJ5T0fh-59" value="" style="edgeStyle=orthogonalEdgeStyle;rounded=0;orthogonalLoop=1;jettySize=auto;html=1;" edge="1" parent="1" source="G2Q2ZaVH8uB0qnJ5T0fh-58" target="4YWPGZYzfikYWuKdy2oT-23">
          <mxGeometry relative="1" as="geometry" />
        </mxCell>
        <mxCell id="G2Q2ZaVH8uB0qnJ5T0fh-58" value="" style="shape=tapeData;whiteSpace=wrap;html=1;perimeter=ellipsePerimeter;" vertex="1" parent="1">
          <mxGeometry x="777.5" y="310" width="45" height="40" as="geometry" />
        </mxCell>
      </root>
    </mxGraphModel>
  </diagram>
</mxfile>
